<svg width="1200" height="400" viewBox="0 0 1200 400" xmlns="http://www.w3.org/2000/svg">

  <!-- Blue dotted wave shape -->
  <g fill="#27C2E0">
    <!-- Rows of ellipses to simulate wave motion -->
    <!-- Row 1 -->
    <ellipse cx="120" cy="170" rx="6" ry="4"/>
    <ellipse cx="145" cy="160" rx="8" ry="5"/>
    <ellipse cx="175" cy="150" rx="10" ry="6"/>
    <ellipse cx="210" cy="142" rx="12" ry="7"/>
    <ellipse cx="250" cy="138" rx="14" ry="8"/>
    <ellipse cx="290" cy="140" rx="12" ry="7"/>
    <ellipse cx="325" cy="150" rx="10" ry="6"/>
    <ellipse cx="355" cy="165" rx="8" ry="5"/>
    <ellipse cx="380" cy="185" rx="6" ry="4"/>

    <!-- Row 2 -->
    <ellipse cx="120" cy="210" rx="6" ry="4"/>
    <ellipse cx="145" cy="200" rx="8" ry="5"/>
    <ellipse cx="175" cy="190" rx="10" ry="6"/>
    <ellipse cx="210" cy="182" rx="12" ry="7"/>
    <ellipse cx="250" cy="178" rx="14" ry="8"/>
    <ellipse cx="290" cy="180" rx="12" ry="7"/>
    <ellipse cx="325" cy="190" rx="10" ry="6"/>
    <ellipse cx="355" cy="205" rx="8" ry="5"/>
    <ellipse cx="380" cy="225" rx="6" ry="4"/>

    <!-- Row 3 -->
    <ellipse cx="120" cy="250" rx="6" ry="4"/>
    <ellipse cx="145" cy="240" rx="8" ry="5"/>
    <ellipse cx="175" cy="230" rx="10" ry="6"/>
    <ellipse cx="210" cy="222" rx="12" ry="7"/>
    <ellipse cx="250" cy="218" rx="14" ry="8"/>
    <ellipse cx="290" cy="220" rx="12" ry="7"/>
    <ellipse cx="325" cy="230" rx="10" ry="6"/>
    <ellipse cx="355" cy="245" rx="8" ry="5"/>
    <ellipse cx="380" cy="265" rx="6" ry="4"/>
  </g>

  <!-- HELLICH Text -->
  <text x="450" y="260"
        font-family="Cairo, sans-serif"
        font-size="160"
        fill="white"
        stroke="#ffefd5d6"
        stroke-width="7"
        letter-spacing="8">
    HELLICH
  </text>

</svg>
