<svg id="svg" version="1.1" viewBox="0 0 300 289.56521739130426" width="300" height="289.56521739130426" xmlns="http://www.w3.org/2000/svg"><svg xmlns="http://www.w3.org/2000/svg"><defs><clipPath id="clip-1"><rect x="0" y="0" transform="scale(0.21739,0.21739)" width="1380" height="1332" fill="none"/></clipPath></defs><g clip-path="url(#clip-1)" fill="none" fill-rule="nonzero" stroke="none" stroke-width="1" stroke-linecap="butt" stroke-linejoin="miter" stroke-miterlimit="10" stroke-dasharray="" stroke-dashoffset="0" font-family="none" font-weight="none" font-size="none" text-anchor="none" style="mix-blend-mode: normal"><path d="M232.79783,141.79283c5.85435,-0.23913 9.64565,4.19891 13.42826,7.97152c3.48696,3.46543 7.00652,6.79609 10.34348,10.41913c3.13478,3.40326 4.06087,8.31913 2.6413,12.68826c-0.58043,1.4537 -1.55652,2.81174 -2.64565,3.92696c-8.06304,8.24957 -16.33261,16.30304 -24.51957,24.42913c-1.78043,1.76717 -4.03913,3.23935 -5.78261,5.05696c-2.50217,2.60543 -4.82826,5.37152 -7.3587,7.95065l-26.92326,27.08848c-2.195,2.21522 -11.1063,11.7 -13.1013,12.5913l-0.14804,0.06304c-1.44935,0.65 -3.54348,0.9413 -5.13935,1.23261c-2.60652,0.06739 -4.85065,-0.17391 -7.13913,-1.55217c-2.39761,-1.44348 -15.89239,-14.93913 -17.85674,-17.47609c-1.05478,-1.36522 -1.93804,-2.85 -2.33783,-4.5413c-0.71587,-3.02826 0.1363,-6.11957 1.76652,-8.70217c2.35043,-3.72391 7.1863,-7.81304 10.38152,-11.00935l23.20478,-23.0337c14.71174,-14.80087 29.11326,-29.92609 44.29935,-44.24652c1.70652,-1.60913 4.66304,-2.35478 6.88696,-2.85674z" fill="#02a6db"/><path d="M125.57674,35.29174c3.96739,-0.55 9.13804,2.03783 11.69891,5.29022c6.01543,7.64022 20.59652,15.16087 14.60239,26.695c-1.12348,2.16217 -2.96761,3.38304 -4.36,5.10413c-3.68804,4.55891 -8.5587,7.87304 -12.56043,11.8737l-31.62609,32.08304c-1.99478,2.04543 -3.75304,4.31804 -5.82565,6.31022c-6.03739,5.77978 -12.51543,11.11413 -18.14283,17.33261c-4.27717,4.72674 -5.11717,7.05174 -11.52152,8.72217c-9.31413,0.08152 -11.56609,-5.01565 -17.70435,-11.05826c-2.59435,-2.55391 -6.41435,-5.90739 -8.46435,-8.76174c-1.05783,-1.44587 -1.75717,-3.12196 -2.04109,-4.89087c-0.40957,-2.66978 0.18087,-5.9063 1.90522,-7.98848c4.51109,-5.44717 10.02261,-10.54609 15.06848,-15.48783l21.705,-21.6213l27.2463,-27.24087c4.24087,-4.28913 7.94435,-8.89891 12.47391,-12.78022c2.55739,-2.19109 4.26891,-3.10196 7.54609,-3.58152z" fill="#02a6db"/><path d="M78.83978,9.21022c6.70848,-1.10626 12.81239,6.53913 16.97957,10.87463c4.04674,4.21015 9.80413,8.26646 10.6737,14.38515c0.29652,2.56957 -0.83043,6.89848 -2.63304,8.79978c-10.62,11.20174 -21.85217,21.89043 -32.78022,32.79913c-1.92935,1.92609 -4.16217,3.56196 -6.08826,5.43761l-13.91543,13.74717c-3.645,3.59065 -3.58326,5.75913 -9.44761,6.47587c-10.31043,0.33413 -12.31,-6.09348 -19.16761,-12.1787c-7.35759,-6.52935 -13.76033,-13.91587 -4.99043,-22.74457c1.53065,-1.54087 3.19622,-3.21978 4.76413,-4.78609c3.89413,-3.87304 7.76891,-7.76543 11.6237,-11.67739l23.07413,-23.12065c3.75804,-3.81348 7.04022,-7.65161 11.14217,-11.2047c4.04783,-3.50598 4.88565,-6.05711 10.76522,-6.80726z" fill="#02a6db"/><path d="M258.4587,188.74304c5.26087,-0.33696 8.47391,2.34043 11.92609,5.93391c3.87174,4.05304 7.88261,7.78217 11.82826,11.78304c3.98261,4.03978 5.28478,10.79022 1.73696,15.52696c-2.0413,2.56522 -4.43043,4.93261 -6.80435,7.21957c-8.7413,8.42391 -17.08696,17.72174 -26.12174,25.78043c-4.71304,4.20435 -8.23478,7.84783 -12.52174,12.38696c-3.83696,4.06522 -8.37174,8.04348 -12.43043,11.89565c-1.29565,1.16739 -4.11739,1.71304 -5.80217,2.00435c-8.81913,0.41739 -11.91348,-6.68043 -17.34217,-11.46957c-10.33848,-9.12391 -14.88152,-15.93043 -2.79043,-26.58043c2,-1.76087 5.39848,-5.35435 7.44326,-7.4087l27.97196,-28.04326c5.4913,-5.43587 10.75217,-11.36239 16.56739,-16.46478c1.86304,-1.63587 3.98478,-2.07543 6.33913,-2.56413z" fill="#02a6db"/><path d="M123.41609,107.1163c1.3313,0.0587 12.57587,11.75043 14.26848,13.47043l16.17609,16.31522c8.08522,7.9513 16.12587,15.94739 24.12152,23.98826c3.34022,3.30283 7.01652,6.73913 10.25652,10.06457c-0.20043,0.52848 -0.67196,1.73326 -1.00848,2.07022c-2.57261,2.57609 -8.43478,9.00087 -11.0187,10.82326c-0.84174,-0.28043 -1.28761,-0.70283 -1.91609,-1.32478c-13.62109,-13.48435 -27.15217,-27.10435 -40.7237,-40.63522c-5.23457,-5.19 -10.42826,-10.42087 -15.58043,-15.69239c-2.02978,-2.04783 -5.05196,-4.63261 -6.76587,-6.77348c1.32283,-1.82326 10.36043,-10.93196 12.19065,-12.30609z" fill="#02a6db"/><path d="M33.6913,19.8763c3.26522,0.30793 6.25239,2.52935 8.39065,4.87913c0.97391,1.07022 2.32261,2.09196 2.9487,3.41065c-0.01261,1.80717 -8.55239,9.06565 -10.41152,11.5c-0.48087,0.57348 -0.98109,1.01978 -1.71609,1.13413c-0.51848,-0.16022 -1.17739,-0.60478 -1.5513,-0.99065c-2.58326,-2.705 -6.91522,-6.26283 -7.10196,-10.23348c-0.19217,-4.08848 2.52457,-7.86348 6.27457,-9.27c0.95391,-0.35772 2.1263,-0.37967 3.16696,-0.42978z" fill="#02a6db"/><path d="M266.41957,250.2087c1.91087,-0.02174 6.46304,5.65435 7.45,7.32609c1.28913,2.17826 1.73478,4.49783 1.01522,6.94783c-1.00217,3.40652 -3.34348,4.41957 -6.21957,5.98696c-1.60435,-0.00652 -3.2087,-0.05435 -4.81087,-0.14348c-1.86739,-0.54348 -10.28478,-6.71087 -9.16957,-8.1087c2.4913,-3.11739 8.54348,-9.62826 11.73478,-12.0087z" fill="#02a6db"/></g></svg></svg>